<mxfile host="app.diagrams.net" modified="2020-08-31T05:33:11.462Z" agent="5.0 (Windows NT 10.0; Win64; x64) AppleWebKit/537.36 (KHTML, like Gecko) Chrome/85.0.4183.83 Safari/537.36" etag="QKOJCZBw8Sq2mEHvjIDR" version="13.6.5" type="github">
  <diagram id="HU6HF3A5RPhw-zDrLY1I" name="Page-1">
    <mxGraphModel dx="1185" dy="594" grid="1" gridSize="10" guides="1" tooltips="1" connect="1" arrows="1" fold="1" page="1" pageScale="1" pageWidth="827" pageHeight="1169" math="0" shadow="0">
      <root>
        <mxCell id="0" />
        <mxCell id="1" parent="0" />
        <mxCell id="1ucbsTCfZI52HVWh1nDO-29" value="" style="rounded=0;whiteSpace=wrap;html=1;" parent="1" vertex="1">
          <mxGeometry width="630" height="2300" as="geometry" />
        </mxCell>
        <mxCell id="1ucbsTCfZI52HVWh1nDO-14" value="User" style="shape=umlLifeline;participant=umlActor;perimeter=lifelinePerimeter;whiteSpace=wrap;html=1;container=1;collapsible=0;recursiveResize=0;verticalAlign=top;spacingTop=36;outlineConnect=0;" parent="1" vertex="1">
          <mxGeometry x="45" y="20" width="20" height="300" as="geometry" />
        </mxCell>
        <mxCell id="1ucbsTCfZI52HVWh1nDO-2" value="Smart App IOS" style="shape=umlLifeline;perimeter=lifelinePerimeter;whiteSpace=wrap;html=1;container=1;collapsible=0;recursiveResize=0;outlineConnect=0;rounded=1;shadow=0;comic=0;labelBackgroundColor=none;strokeWidth=1;fontFamily=Verdana;fontSize=12;align=center;" parent="1" vertex="1">
          <mxGeometry x="210" y="20" width="100" height="2250" as="geometry" />
        </mxCell>
        <mxCell id="1ucbsTCfZI52HVWh1nDO-3" value="" style="html=1;points=[];perimeter=orthogonalPerimeter;rounded=0;shadow=0;comic=0;labelBackgroundColor=none;strokeWidth=1;fontFamily=Verdana;fontSize=12;align=center;" parent="1ucbsTCfZI52HVWh1nDO-2" vertex="1">
          <mxGeometry x="45" y="100" width="10" height="2150" as="geometry" />
        </mxCell>
        <mxCell id="1ucbsTCfZI52HVWh1nDO-4" value="Backend" style="shape=umlLifeline;perimeter=lifelinePerimeter;whiteSpace=wrap;html=1;container=1;collapsible=0;recursiveResize=0;outlineConnect=0;rounded=1;shadow=0;comic=0;labelBackgroundColor=none;strokeWidth=1;fontFamily=Verdana;fontSize=12;align=center;" parent="1" vertex="1">
          <mxGeometry x="460" y="20" width="100" height="2240" as="geometry" />
        </mxCell>
        <mxCell id="1ucbsTCfZI52HVWh1nDO-5" value="" style="html=1;points=[];perimeter=orthogonalPerimeter;rounded=0;shadow=0;comic=0;labelBackgroundColor=none;strokeWidth=1;fontFamily=Verdana;fontSize=12;align=center;" parent="1ucbsTCfZI52HVWh1nDO-4" vertex="1">
          <mxGeometry x="45" y="100" width="10" height="2140" as="geometry" />
        </mxCell>
        <mxCell id="1ucbsTCfZI52HVWh1nDO-9" value="Click&amp;nbsp; button &lt;br&gt;&quot;Abrir Productos&quot; in Home" style="html=1;verticalAlign=bottom;endArrow=block;labelBackgroundColor=none;fontFamily=Verdana;fontSize=12;edgeStyle=elbowEdgeStyle;elbow=vertical;" parent="1" edge="1">
          <mxGeometry relative="1" as="geometry">
            <mxPoint x="70" y="169.83" as="sourcePoint" />
            <mxPoint x="240" y="169.83" as="targetPoint" />
          </mxGeometry>
        </mxCell>
        <mxCell id="1ucbsTCfZI52HVWh1nDO-11" value="Validate document type &lt;br&gt;and document number&lt;br&gt;&amp;nbsp;in database" style="html=1;verticalAlign=bottom;endArrow=block;labelBackgroundColor=none;fontFamily=Verdana;fontSize=12;edgeStyle=elbowEdgeStyle;elbow=vertical;" parent="1" edge="1">
          <mxGeometry relative="1" as="geometry">
            <mxPoint x="280" y="292" as="sourcePoint" />
            <mxPoint x="500" y="292" as="targetPoint" />
            <Array as="points" />
          </mxGeometry>
        </mxCell>
        <mxCell id="1ucbsTCfZI52HVWh1nDO-12" value="Response validation" style="html=1;verticalAlign=bottom;endArrow=block;labelBackgroundColor=none;fontFamily=Verdana;fontSize=12;edgeStyle=elbowEdgeStyle;elbow=vertical;" parent="1" edge="1">
          <mxGeometry relative="1" as="geometry">
            <mxPoint x="500" y="350" as="sourcePoint" />
            <mxPoint x="280" y="350" as="targetPoint" />
          </mxGeometry>
        </mxCell>
        <mxCell id="1ucbsTCfZI52HVWh1nDO-13" value="" style="html=1;points=[];perimeter=orthogonalPerimeter;rounded=0;shadow=0;comic=0;labelBackgroundColor=none;strokeWidth=1;fontFamily=Verdana;fontSize=12;align=center;" parent="1" vertex="1">
          <mxGeometry x="50" y="120" width="10" height="2150" as="geometry" />
        </mxCell>
        <mxCell id="1ucbsTCfZI52HVWh1nDO-15" value="Show screen &lt;br&gt;&quot;Apertura de productos&quot;" style="html=1;verticalAlign=bottom;endArrow=block;labelBackgroundColor=none;fontFamily=Verdana;fontSize=12;edgeStyle=elbowEdgeStyle;elbow=vertical;" parent="1" edge="1">
          <mxGeometry relative="1" as="geometry">
            <mxPoint x="240" y="450" as="sourcePoint" />
            <mxPoint x="65" y="450" as="targetPoint" />
          </mxGeometry>
        </mxCell>
        <mxCell id="3u4s2S24RbVyFO70V5Bj-1" value="" style="rounded=0;whiteSpace=wrap;html=1;fillColor=none;strokeColor=#FF8000;" vertex="1" parent="1">
          <mxGeometry x="25" y="470" width="585" height="480" as="geometry" />
        </mxCell>
        <mxCell id="3u4s2S24RbVyFO70V5Bj-3" value="Client is in database" style="rounded=0;whiteSpace=wrap;html=1;strokeColor=#FF8000;fillColor=#FFB570;" vertex="1" parent="1">
          <mxGeometry x="25" y="470" width="120" height="20" as="geometry" />
        </mxCell>
        <mxCell id="3u4s2S24RbVyFO70V5Bj-4" value="Show sections&amp;nbsp;&lt;br&gt;&quot;Productos Davivienda&quot;&lt;br&gt;&quot;Productos Daviplata&quot;" style="html=1;verticalAlign=bottom;endArrow=block;labelBackgroundColor=none;fontFamily=Verdana;fontSize=12;edgeStyle=elbowEdgeStyle;elbow=vertical;" edge="1" parent="1">
          <mxGeometry relative="1" as="geometry">
            <mxPoint x="240" y="559.9299999999998" as="sourcePoint" />
            <mxPoint x="65" y="559.9299999999998" as="targetPoint" />
          </mxGeometry>
        </mxCell>
        <mxCell id="3u4s2S24RbVyFO70V5Bj-5" value="Show options&lt;br&gt;&quot;&lt;b&gt;Productos Davivienda&lt;/b&gt;&quot;&lt;br&gt;- &quot;Tarjeta de credito movil&quot;&lt;br&gt;&quot;&lt;b&gt;Productos Daviplata&lt;/b&gt;&quot;&lt;br&gt;-&quot;Tarjeta Virtual&quot;&lt;br&gt;-&quot;Seguros&quot;&lt;br&gt;-&quot;SOAT&quot;&lt;br&gt;-&quot;Nanocréditos&quot;&lt;br&gt;-&quot;Bolsillo de ahorro&quot;" style="html=1;verticalAlign=bottom;endArrow=block;labelBackgroundColor=none;fontFamily=Verdana;fontSize=12;edgeStyle=elbowEdgeStyle;elbow=vertical;" edge="1" parent="1">
          <mxGeometry relative="1" as="geometry">
            <mxPoint x="240" y="700.2799999999999" as="sourcePoint" />
            <mxPoint x="65" y="700.2799999999999" as="targetPoint" />
          </mxGeometry>
        </mxCell>
        <mxCell id="3u4s2S24RbVyFO70V5Bj-6" value="" style="rounded=0;whiteSpace=wrap;html=1;fillColor=none;strokeColor=#7EA6E0;" vertex="1" parent="1">
          <mxGeometry x="20" y="991" width="585" height="430" as="geometry" />
        </mxCell>
        <mxCell id="3u4s2S24RbVyFO70V5Bj-7" value="Client is not in database" style="rounded=0;whiteSpace=wrap;html=1;strokeColor=#7EA6E0;fillColor=#7EA6E0;" vertex="1" parent="1">
          <mxGeometry x="20" y="991" width="135" height="20" as="geometry" />
        </mxCell>
        <mxCell id="3u4s2S24RbVyFO70V5Bj-8" value="Show sections&amp;nbsp;&lt;br&gt;&quot;Productos Daviplata&quot;" style="html=1;verticalAlign=bottom;endArrow=block;labelBackgroundColor=none;fontFamily=Verdana;fontSize=12;edgeStyle=elbowEdgeStyle;elbow=vertical;" edge="1" parent="1">
          <mxGeometry relative="1" as="geometry">
            <mxPoint x="240" y="1071.2799999999997" as="sourcePoint" />
            <mxPoint x="65" y="1071.2799999999997" as="targetPoint" />
          </mxGeometry>
        </mxCell>
        <mxCell id="3u4s2S24RbVyFO70V5Bj-9" value="" style="rounded=0;whiteSpace=wrap;html=1;fillColor=none;strokeColor=#FFB570;" vertex="1" parent="1">
          <mxGeometry x="40" y="720" width="560" height="210" as="geometry" />
        </mxCell>
        <mxCell id="3u4s2S24RbVyFO70V5Bj-10" value="Client already has virtual card and is not in nanocredit" style="rounded=0;whiteSpace=wrap;html=1;strokeColor=#FFB570;fillColor=#FFB570;" vertex="1" parent="1">
          <mxGeometry x="40" y="720" width="300" height="20" as="geometry" />
        </mxCell>
        <mxCell id="3u4s2S24RbVyFO70V5Bj-11" value="Show options&lt;br&gt;&quot;&lt;b&gt;Productos Davivienda&lt;/b&gt;&quot;&lt;br&gt;- &quot;Tarjeta de credito movil&quot;&lt;br&gt;&quot;&lt;b&gt;Productos Daviplata&lt;/b&gt;&quot;&lt;br&gt;-&quot;Seguros&quot;&lt;br&gt;-&quot;SOAT&quot;&lt;br&gt;-&quot;Bolsillo de ahorro&quot;" style="html=1;verticalAlign=bottom;endArrow=block;labelBackgroundColor=none;fontFamily=Verdana;fontSize=12;edgeStyle=elbowEdgeStyle;elbow=vertical;" edge="1" parent="1">
          <mxGeometry relative="1" as="geometry">
            <mxPoint x="240" y="870.1399999999998" as="sourcePoint" />
            <mxPoint x="65" y="870.1399999999998" as="targetPoint" />
          </mxGeometry>
        </mxCell>
        <mxCell id="3u4s2S24RbVyFO70V5Bj-12" value="Show options&lt;br&gt;&quot;&lt;b&gt;Productos Daviplata&lt;/b&gt;&quot;&lt;br&gt;-&quot;Tarjeta Virtual&quot;&lt;br&gt;-&quot;Seguros&quot;&lt;br&gt;-&quot;SOAT&quot;&lt;br&gt;-&quot;Nanocréditos&quot;&lt;br&gt;-&quot;Bolsillo de ahorro&quot;" style="html=1;verticalAlign=bottom;endArrow=block;labelBackgroundColor=none;fontFamily=Verdana;fontSize=12;edgeStyle=elbowEdgeStyle;elbow=vertical;" edge="1" parent="1">
          <mxGeometry relative="1" as="geometry">
            <mxPoint x="240" y="1221.1399999999999" as="sourcePoint" />
            <mxPoint x="65" y="1221.1399999999999" as="targetPoint" />
          </mxGeometry>
        </mxCell>
        <mxCell id="3u4s2S24RbVyFO70V5Bj-13" value="" style="rounded=0;whiteSpace=wrap;html=1;fillColor=none;strokeColor=#7EA6E0;" vertex="1" parent="1">
          <mxGeometry x="30" y="1241" width="560" height="170" as="geometry" />
        </mxCell>
        <mxCell id="3u4s2S24RbVyFO70V5Bj-14" value="Client already has virtual card and is not in nanocredit" style="rounded=0;whiteSpace=wrap;html=1;strokeColor=#7EA6E0;fillColor=#7EA6E0;" vertex="1" parent="1">
          <mxGeometry x="30" y="1241" width="300" height="20" as="geometry" />
        </mxCell>
        <mxCell id="3u4s2S24RbVyFO70V5Bj-15" value="Show options&lt;br&gt;&quot;&lt;b&gt;Productos Daviplata&lt;/b&gt;&quot;&lt;br&gt;-&quot;Seguros&quot;&lt;br&gt;-&quot;SOAT&quot;&lt;br&gt;-&quot;Bolsillo de ahorro&quot;" style="html=1;verticalAlign=bottom;endArrow=block;labelBackgroundColor=none;fontFamily=Verdana;fontSize=12;edgeStyle=elbowEdgeStyle;elbow=vertical;" edge="1" parent="1">
          <mxGeometry relative="1" as="geometry">
            <mxPoint x="240" y="1360" as="sourcePoint" />
            <mxPoint x="65" y="1360" as="targetPoint" />
          </mxGeometry>
        </mxCell>
        <mxCell id="3u4s2S24RbVyFO70V5Bj-16" value="On click&amp;nbsp; option&amp;nbsp;&lt;br&gt;&quot;Tarjeta de Crédito Movil&quot;" style="html=1;verticalAlign=bottom;endArrow=block;labelBackgroundColor=none;fontFamily=Verdana;fontSize=12;edgeStyle=elbowEdgeStyle;elbow=vertical;" edge="1" parent="1">
          <mxGeometry relative="1" as="geometry">
            <mxPoint x="65" y="1520" as="sourcePoint" />
            <mxPoint x="235" y="1520" as="targetPoint" />
          </mxGeometry>
        </mxCell>
        <mxCell id="3u4s2S24RbVyFO70V5Bj-17" value="Open micro application &lt;br&gt;&quot;Tarjeta de Crédito Davivienda&quot;" style="html=1;verticalAlign=bottom;endArrow=block;labelBackgroundColor=none;fontFamily=Verdana;fontSize=12;edgeStyle=elbowEdgeStyle;elbow=vertical;" edge="1" parent="1">
          <mxGeometry relative="1" as="geometry">
            <mxPoint x="236" y="1560" as="sourcePoint" />
            <mxPoint x="76" y="1560" as="targetPoint" />
          </mxGeometry>
        </mxCell>
        <mxCell id="3u4s2S24RbVyFO70V5Bj-18" value="On click&amp;nbsp; option&amp;nbsp;&lt;br&gt;&quot;Tarjeta Virtual&quot;" style="html=1;verticalAlign=bottom;endArrow=block;labelBackgroundColor=none;fontFamily=Verdana;fontSize=12;edgeStyle=elbowEdgeStyle;elbow=vertical;" edge="1" parent="1">
          <mxGeometry relative="1" as="geometry">
            <mxPoint x="65" y="1640.33" as="sourcePoint" />
            <mxPoint x="235" y="1640.33" as="targetPoint" />
          </mxGeometry>
        </mxCell>
        <mxCell id="3u4s2S24RbVyFO70V5Bj-19" value="Open current flow &lt;br&gt;&quot;Apertura de tarjeta virtual&quot;" style="html=1;verticalAlign=bottom;endArrow=block;labelBackgroundColor=none;fontFamily=Verdana;fontSize=12;edgeStyle=elbowEdgeStyle;elbow=vertical;" edge="1" parent="1">
          <mxGeometry relative="1" as="geometry">
            <mxPoint x="229" y="1680.33" as="sourcePoint" />
            <mxPoint x="69" y="1680.33" as="targetPoint" />
          </mxGeometry>
        </mxCell>
        <mxCell id="3u4s2S24RbVyFO70V5Bj-20" value="On click&amp;nbsp; option&amp;nbsp;&lt;br&gt;&quot;Seguros&quot;" style="html=1;verticalAlign=bottom;endArrow=block;labelBackgroundColor=none;fontFamily=Verdana;fontSize=12;edgeStyle=elbowEdgeStyle;elbow=vertical;" edge="1" parent="1">
          <mxGeometry relative="1" as="geometry">
            <mxPoint x="65" y="1754.1599999999999" as="sourcePoint" />
            <mxPoint x="235" y="1754.1599999999999" as="targetPoint" />
          </mxGeometry>
        </mxCell>
        <mxCell id="3u4s2S24RbVyFO70V5Bj-21" value="Open current flow &lt;br&gt;&quot;Seguros&quot;" style="html=1;verticalAlign=bottom;endArrow=block;labelBackgroundColor=none;fontFamily=Verdana;fontSize=12;edgeStyle=elbowEdgeStyle;elbow=vertical;" edge="1" parent="1">
          <mxGeometry relative="1" as="geometry">
            <mxPoint x="229" y="1794.1599999999999" as="sourcePoint" />
            <mxPoint x="69" y="1794.1599999999999" as="targetPoint" />
          </mxGeometry>
        </mxCell>
        <mxCell id="3u4s2S24RbVyFO70V5Bj-22" value="On click&amp;nbsp; option&amp;nbsp;&lt;br&gt;&quot;SOAT&quot;" style="html=1;verticalAlign=bottom;endArrow=block;labelBackgroundColor=none;fontFamily=Verdana;fontSize=12;edgeStyle=elbowEdgeStyle;elbow=vertical;" edge="1" parent="1">
          <mxGeometry relative="1" as="geometry">
            <mxPoint x="65" y="1859.9999999999998" as="sourcePoint" />
            <mxPoint x="235" y="1859.9999999999998" as="targetPoint" />
          </mxGeometry>
        </mxCell>
        <mxCell id="3u4s2S24RbVyFO70V5Bj-23" value="Open current flow &lt;br&gt;&quot;SOAT&quot;" style="html=1;verticalAlign=bottom;endArrow=block;labelBackgroundColor=none;fontFamily=Verdana;fontSize=12;edgeStyle=elbowEdgeStyle;elbow=vertical;" edge="1" parent="1">
          <mxGeometry relative="1" as="geometry">
            <mxPoint x="229" y="1899.9999999999998" as="sourcePoint" />
            <mxPoint x="69" y="1899.9999999999998" as="targetPoint" />
          </mxGeometry>
        </mxCell>
        <mxCell id="3u4s2S24RbVyFO70V5Bj-25" value="On click&amp;nbsp; option&amp;nbsp;&lt;br&gt;&quot;Nanocreditos&quot;" style="html=1;verticalAlign=bottom;endArrow=block;labelBackgroundColor=none;fontFamily=Verdana;fontSize=12;edgeStyle=elbowEdgeStyle;elbow=vertical;" edge="1" parent="1">
          <mxGeometry relative="1" as="geometry">
            <mxPoint x="65" y="1980" as="sourcePoint" />
            <mxPoint x="235" y="1980" as="targetPoint" />
          </mxGeometry>
        </mxCell>
        <mxCell id="3u4s2S24RbVyFO70V5Bj-26" value="Open current flow &lt;br&gt;&quot;Nanocreditos&quot;" style="html=1;verticalAlign=bottom;endArrow=block;labelBackgroundColor=none;fontFamily=Verdana;fontSize=12;edgeStyle=elbowEdgeStyle;elbow=vertical;" edge="1" parent="1">
          <mxGeometry relative="1" as="geometry">
            <mxPoint x="229" y="2020" as="sourcePoint" />
            <mxPoint x="69" y="2020" as="targetPoint" />
          </mxGeometry>
        </mxCell>
        <mxCell id="3u4s2S24RbVyFO70V5Bj-27" value="On click&amp;nbsp; option&amp;nbsp;&lt;br&gt;&quot;Bolsillo de ahorro&quot;" style="html=1;verticalAlign=bottom;endArrow=block;labelBackgroundColor=none;fontFamily=Verdana;fontSize=12;edgeStyle=elbowEdgeStyle;elbow=vertical;" edge="1" parent="1">
          <mxGeometry relative="1" as="geometry">
            <mxPoint x="65" y="2090" as="sourcePoint" />
            <mxPoint x="235" y="2090" as="targetPoint" />
          </mxGeometry>
        </mxCell>
        <mxCell id="3u4s2S24RbVyFO70V5Bj-28" value="Open current flow &lt;br&gt;&quot;Bolsillo de ahorro&quot;" style="html=1;verticalAlign=bottom;endArrow=block;labelBackgroundColor=none;fontFamily=Verdana;fontSize=12;edgeStyle=elbowEdgeStyle;elbow=vertical;" edge="1" parent="1">
          <mxGeometry relative="1" as="geometry">
            <mxPoint x="229" y="2130" as="sourcePoint" />
            <mxPoint x="69" y="2130" as="targetPoint" />
          </mxGeometry>
        </mxCell>
      </root>
    </mxGraphModel>
  </diagram>
</mxfile>
